
<svg width="100" height="100" viewBox="0 0 100 100" fill="none" xmlns="http://www.w3.org/2000/svg">
  <path d="M71.3,35.3c-2.2-1.9-5.4-3.8-9.5-5.3c0.2-0.7,0.3-1.5,0.3-2.3c0-4.8-3.9-8.7-8.7-8.7c-0.6,0-1.2,0.1-1.7,0.2
    c-1.5-2.9-4.5-4.9-8-4.9c-5,0-9,4-9,9v0.7c-6,2.3-13,8-13,17.3c0,5.2,2.1,9.3,6.1,11.9c-0.7,1.7-1.1,3.6-1.1,5.6
    c0,7.9,6.4,14.4,14.4,14.4c0.5,0,0.9,0,1.4-0.1c2.1,3.1,5.7,5.1,9.7,5.1c5.3,0,9.9-3.5,11.3-8.4c0.8,0.1,1.6,0.2,2.4,0.2
    c8.5,0,15.5-6.9,15.5-15.5C81.5,46.4,77.6,40,71.3,35.3z M61.6,70.6c-0.7,0-1.3-0.1-2-0.2c-0.1-0.7-0.3-1.4-0.5-2.1
    c-0.3-1.1-1.4-1.7-2.5-1.4c-1.1,0.3-1.7,1.4-1.4,2.5c0.3,1,0.5,2,0.6,3c-1.4,4-5.3,6.9-9.8,6.9c-3.5,0-6.6-1.7-8.5-4.4
    c0.6-0.7,1.2-1.4,1.6-2.2c0.6-1,0.3-2.2-0.7-2.8c-1-0.6-2.2-0.3-2.8,0.7c-0.4,0.7-1,1.3-1.5,1.9c-0.3,0-0.6,0.1-1,0.1
    c-6.3,0-11.4-5.1-11.4-11.4c0-2.1,0.6-4.1,1.6-5.9c0.5-0.8,0.2-1.9-0.6-2.4c-0.8-0.5-1.9-0.3-2.4,0.6c-0.3,0.5-0.6,1.1-0.9,1.6
    c-3.1-2.1-4.6-5.5-4.6-9.6c0-7.8,6-12.7,11.8-14.7c0.4-0.1,0.7-0.4,0.9-0.8s0.3-0.8,0.2-1.2v-1.7c0-3.3,2.7-6,6-6
    c3,0,5.4,2.2,5.9,5c-0.6,0.8-1.1,1.6-1.5,2.5c-0.5,1,0,2.3,1.1,2.7c1,0.5,2.3,0,2.7-1.1c0.4-0.9,1-1.6,1.7-2.3c0.3-0.1,0.6-0.1,0.9-0.1
    c3.1,0,5.7,2.6,5.7,5.7c0,1.2-0.4,2.3-1,3.2c-0.6,0.9-0.4,2.2,0.5,2.8c0.9,0.6,2.2,0.4,2.8-0.5c0.3-0.4,0.5-0.9,0.7-1.4
    c4.4,1.6,7.6,3.7,9.5,5.3c5.3,3.9,8.5,9.1,8.5,14.9C74.1,65.2,68.4,70.6,61.6,70.6z" fill="#ffffff"/>
</svg>
