
<svg width="100" height="100" viewBox="0 0 100 100" fill="none" xmlns="http://www.w3.org/2000/svg">
  <path d="M82.3,40.9c-0.2-2.2-1-4.3-2.3-6.1c-1.3-1.9-3.1-3.4-5.2-4.4c-0.9-0.5-1.8-0.8-2.8-1.1c0.1-0.7,0.2-1.5,0.2-2.2
    c0-1.7-0.4-3.4-1.1-4.9c-0.7-1.5-1.8-2.9-3.2-4c-1.3-1.1-2.9-1.9-4.6-2.3c-1-0.3-2-0.4-3.1-0.4c-0.5-1.9-1.5-3.6-2.9-5
    c-1.4-1.4-3.1-2.5-5-3c-1.9-0.5-4-0.6-6-0.1c-2,0.5-3.8,1.4-5.3,2.8c-1.9-0.9-4-1.3-6.1-1.1c-2.1,0.1-4.1,0.9-5.8,2
    c-1.8,1.1-3.2,2.7-4.2,4.5c-1,1.9-1.5,3.9-1.4,6c-2.3,1.1-4.2,2.8-5.6,5.1c-1.3,2.2-2,4.8-1.9,7.4c0,2.6,0.8,5.2,2.3,7.3
    c-1.2,1.6-2,3.6-2.2,5.6c-0.2,2,0.1,4,0.8,5.9c0.8,1.9,2,3.5,3.6,4.8c1.6,1.3,3.5,2.2,5.5,2.6c0.2,2.4,1.1,4.7,2.5,6.6
    c1.4,1.9,3.4,3.4,5.6,4.2c2.2,0.8,4.6,1,7,0.5c2.3-0.5,4.5-1.6,6.2-3.3c1.8,2.2,4.2,3.7,7,4.3c2.8,0.7,5.7,0.3,8.2-0.9
    c2.5-1.2,4.6-3.2,5.9-5.7c1.3-2.5,1.7-5.3,1.2-8c3.2-1.1,5.9-3.3,7.7-6.2c1.7-2.9,2.3-6.3,1.7-9.5" stroke="#ffffff" strokeWidth="2" strokeLinecap="round" strokeLinejoin="round" fill="none"/>
  <path d="M45.6,62.8c0,0-6.2-10.3,3.4-16.5c0,0,6.3,2.2,9.5-3.4c3.2-5.6,10.4-1,10.4-1" stroke="#ffffff" strokeWidth="2" strokeLinecap="round" strokeLinejoin="round" fill="none"/>
  <path d="M33,41.7c0,0,8.1-2.3,8.1,4.2c0,0,0,6.4,7.4,6.4c7.4,0,5.3-8.4,9.5-8.4c4.2,0,4.2,4.4,4.2,4.4" stroke="#ffffff" strokeWidth="2" strokeLinecap="round" strokeLinejoin="round" fill="none"/>
</svg>
