
<svg width="100" height="100" viewBox="0 0 100 100" fill="none" xmlns="http://www.w3.org/2000/svg">
  <path d="M71.3,35.3c-2.2-1.9-5.4-3.8-9.5-5.3c0.2-0.7,0.3-1.5,0.3-2.3c0-4.8-3.9-8.7-8.7-8.7c-0.6,0-1.2,0.1-1.7,0.2
    c-1.5-2.9-4.5-4.9-8-4.9c-5,0-9,4-9,9v0.7c-6,2.3-13,8-13,17.3c0,5.2,2.1,9.3,6.1,11.9c-0.7,1.7-1.1,3.6-1.1,5.6
    c0,7.9,6.4,14.4,14.4,14.4c0.5,0,0.9,0,1.4-0.1c2.1,3.1,5.7,5.1,9.7,5.1c5.3,0,9.9-3.5,11.3-8.4c0.8,0.1,1.6,0.2,2.4,0.2
    c8.5,0,15.5-6.9,15.5-15.5C81.5,46.4,77.6,40,71.3,35.3z" fill="#ffffff"/>
</svg>
